<svg id="open-menu" xmlns="http://www.w3.org/2000/svg" width="24.239" height="17.506" viewBox="0 0 24.239 17.506">
  <g id="Group_183" data-name="Group 183">
    <path id="Path_42" data-name="Path 42" d="M23.229,124.688H1.01a1.01,1.01,0,0,1,0-2.02H23.229a1.01,1.01,0,0,1,0,2.02Zm0,0" transform="translate(0 -114.925)" fill="#fff"/>
    <path id="Path_43" data-name="Path 43" d="M23.229,2.02H1.01A1.01,1.01,0,0,1,1.01,0H23.229a1.01,1.01,0,1,1,0,2.02Zm0,0" fill="#fff"/>
    <path id="Path_44" data-name="Path 44" d="M23.229,247.352H1.01a1.01,1.01,0,1,1,0-2.02H23.229a1.01,1.01,0,1,1,0,2.02Zm0,0" transform="translate(0 -229.846)" fill="#fff"/>
  </g>
</svg>
