<svg xmlns="http://www.w3.org/2000/svg" width="19" height="19" viewBox="0 0 19 19">
  <g id="Path_51" data-name="Path 51" fill="#527339">
    <path d="M 9.5 17.5 C 5.088789939880371 17.5 1.5 13.91121006011963 1.5 9.5 C 1.5 5.088789939880371 5.088789939880371 1.5 9.5 1.5 C 13.91121006011963 1.5 17.5 5.088789939880371 17.5 9.5 C 17.5 13.91121006011963 13.91121006011963 17.5 9.5 17.5 Z" stroke="none"/>
    <path d="M 9.5 3 C 5.915889739990234 3 3 5.915889739990234 3 9.5 C 3 13.08411026000977 5.915889739990234 16 9.5 16 C 13.08411026000977 16 16 13.08411026000977 16 9.5 C 16 5.915889739990234 13.08411026000977 3 9.5 3 M 9.5 0 C 14.74670028686523 0 19 4.253299713134766 19 9.5 C 19 14.74670028686523 14.74670028686523 19 9.5 19 C 4.253299713134766 19 0 14.74670028686523 0 9.5 C 0 4.253299713134766 4.253299713134766 0 9.5 0 Z" stroke="none" fill="#8d8d8d"/>
  </g>
</svg>
