<svg xmlns="http://www.w3.org/2000/svg" width="47" height="47" viewBox="0 0 47 47">
  <g id="storage" transform="translate(0)">
    <path id="Path_30" data-name="Path 30" d="M46.345,14.934,24.314.247a1.468,1.468,0,0,0-1.629,0L.654,14.934a1.469,1.469,0,0,0,.815,2.691H3.917V45.041A1.959,1.959,0,0,0,5.875,47H7.833V24.968A1.473,1.473,0,0,1,9.3,23.5H37.7a1.472,1.472,0,0,1,1.469,1.469V47h1.958a1.959,1.959,0,0,0,1.958-1.958V17.625h2.448a1.469,1.469,0,0,0,.815-2.691Z" transform="translate(0)" fill="#527339"/>
    <path id="Path_33" data-name="Path 33" d="M13.863,13v.973a.973.973,0,1,1-1.945,0V13H9.648A.649.649,0,0,0,9,13.648v5.187a.649.649,0,0,0,.648.648h6.484a.649.649,0,0,0,.648-.648V13.648A.649.649,0,0,0,16.132,13Z" transform="translate(10.47 13.708)" fill="#527339"/>
    <path id="Path_39" data-name="Path 39" d="M13.863,13v.973a.973.973,0,1,1-1.945,0V13H9.648A.649.649,0,0,0,9,13.648v5.187a.649.649,0,0,0,.648.648h6.484a.649.649,0,0,0,.648-.648V13.648A.649.649,0,0,0,16.132,13Z" transform="translate(1.47 24.708)" fill="#527339"/>
    <path id="Path_40" data-name="Path 40" d="M13.863,13v.973a.973.973,0,1,1-1.945,0V13H9.648A.649.649,0,0,0,9,13.648v5.187a.649.649,0,0,0,.648.648h6.484a.649.649,0,0,0,.648-.648V13.648A.649.649,0,0,0,16.132,13Z" transform="translate(20.47 24.708)" fill="#527339"/>
  </g>
</svg>
