<svg id="tick_1_" data-name="tick (1)" xmlns="http://www.w3.org/2000/svg" width="99.777" height="99.777" viewBox="0 0 99.777 99.777">
  <g id="Group_36" data-name="Group 36">
    <g id="Group_35" data-name="Group 35">
      <path id="Path_17" data-name="Path 17" d="M49.888,0A49.888,49.888,0,1,0,99.777,49.888,49.888,49.888,0,0,0,49.888,0Zm0,92.65A42.761,42.761,0,1,1,92.65,49.888,42.761,42.761,0,0,1,49.888,92.65Z" fill="#527339"/>
    </g>
  </g>
  <g id="Group_38" data-name="Group 38" transform="translate(21.337 28.551)">
    <g id="Group_37" data-name="Group 37">
      <path id="Path_18" data-name="Path 18" d="M158.117,137.743a3.563,3.563,0,0,0-4.951,0h0l-33.115,33.115-11.735-11.735a3.563,3.563,0,0,0-5.126,4.951q.043.044.087.087l14.254,14.254a3.563,3.563,0,0,0,5.039,0L158.2,142.782A3.563,3.563,0,0,0,158.117,137.743Z" transform="translate(-102.19 -136.743)" fill="#527339"/>
    </g>
  </g>
</svg>
