<svg xmlns="http://www.w3.org/2000/svg" width="43" height="40.61" viewBox="0 0 43 40.61">
  <g id="contract" transform="translate(0 -10.453)">
    <g id="Group_135" data-name="Group 135" transform="translate(0 10.453)">
      <g id="Group_134" data-name="Group 134" transform="translate(0 0)">
        <path id="Path_34" data-name="Path 34" d="M163.342,31.518h9.019L161.968,21.424v8.362C161.968,30.622,162.505,31.518,163.342,31.518Z" transform="translate(-143.454 -20.17)" fill="#527339"/>
        <path id="Path_35" data-name="Path 35" d="M16.725,24.641V15.623H2.569A2.389,2.389,0,0,0,0,18.072V52.71a2.792,2.792,0,0,0,2.568,2.926H27.058a2.986,2.986,0,0,0,2.807-2.926V28.165H19.891A3.429,3.429,0,0,1,16.725,24.641ZM4.958,33.54H15.112a.9.9,0,1,1,0,1.792H4.958a.9.9,0,1,1,0-1.792ZM24.072,49.664H4.958a.9.9,0,1,1,0-1.792H24.072a.9.9,0,1,1,0,1.792Zm.9-8.062a.9.9,0,0,1-.9.9H4.958a.9.9,0,1,1,0-1.792H24.072A.9.9,0,0,1,24.968,41.6Z" transform="translate(0 -15.026)" fill="#527339"/>
        <path id="Path_36" data-name="Path 36" d="M347.362,327.088l1.553-3.166h-3.046Z" transform="translate(-306.333 -288.09)" fill="#527339"/>
        <path id="Path_37" data-name="Path 37" d="M317.241,41.8h-.776v.657h-1.911a1.254,1.254,0,0,0-.717.418,1.016,1.016,0,0,0-.358.717V53.806a.9.9,0,1,0,1.792,0V44.488h1.195v8.661h4.181V41.8Z" transform="translate(-277.645 -38.216)" fill="#527339"/>
        <path id="Path_38" data-name="Path 38" d="M352.259,11.707a1.135,1.135,0,0,0-.3-.777,1.314,1.314,0,0,0-.9-.478c-.657,0-1.016.777-1.016,1.434v.956h2.21Z" transform="translate(-310.035 -10.453)" fill="#527339"/>
        <rect id="Rectangle_175" data-name="Rectangle 175" width="4.181" height="1.195" transform="translate(38.819 16.722)" fill="#527339"/>
        <rect id="Rectangle_176" data-name="Rectangle 176" width="4.181" height="14.335" transform="translate(38.819 19.706)" fill="#527339"/>
      </g>
    </g>
  </g>
</svg>
