<svg xmlns="http://www.w3.org/2000/svg" width="22.453" height="20.007" viewBox="0 0 22.453 20.007">
  <g id="Van" transform="translate(-320 -366)">
    <g id="delivery" transform="translate(322.465 304.996)">
      <g id="Group_63" data-name="Group 63" transform="translate(0 67.004)">
        <path id="Path_28" data-name="Path 28" d="M19.309,73.247l-1.361-.589-1.156-2.249a1.82,1.82,0,0,0-1.638-1h-1.99v-.562A1.836,1.836,0,0,0,11.335,67H1.821A1.831,1.831,0,0,0,0,68.851v8.612A1.122,1.122,0,0,0,1.107,78.6h.254c0,.045,0,.062,0,.089a2.312,2.312,0,1,0,4.623.018v-.022a.694.694,0,0,0,0-.089h7.689v.089a2.312,2.312,0,1,0,4.623.018v-.112h.576a1.126,1.126,0,0,0,1.125-1.125V74.282A1.119,1.119,0,0,0,19.309,73.247ZM3.673,80.123A1.419,1.419,0,1,1,5.092,78.7,1.417,1.417,0,0,1,3.673,80.123Zm8.6-2.405H5.766a2.308,2.308,0,0,0-4.186,0H1.125a.231.231,0,0,1-.232-.245v-2.3H12.272Zm0-8.862v5.426H.893V68.856a.939.939,0,0,1,.928-.955h9.514a.946.946,0,0,1,.937.95Zm.892,1.455h1.99a.942.942,0,0,1,.848.5l.892,1.727H13.164Zm2.816,9.813A1.419,1.419,0,1,1,17.4,78.7,1.417,1.417,0,0,1,15.98,80.123ZM19.1,77.473a.231.231,0,0,1-.232.245h-.794a2.31,2.31,0,0,0-4.186,0h-.723V73.434h4.373l1.419.625a.263.263,0,0,1,.143.241Z" transform="translate(0 -67.004)"/>
      </g>
    </g>
    <circle id="Ellipse_13" data-name="Ellipse 13" cx="4" cy="4" r="4" transform="translate(320 369)"/>
    <text id="_" data-name="+" transform="translate(321 376)" fill="#fff" font-size="10" font-family="Roboto-Regular, Roboto"><tspan x="0" y="0">+</tspan></text>
  </g>
</svg>
